<?xml version="1.0" encoding="UTF-8"?>
<!DOCTYPE svg PUBLIC "-//W3C//DTD SVG 1.1//EN" "http://www.w3.org/Graphics/SVG/1.1/DTD/svg11.dtd">
<!-- Creator: CorelDRAW X8 -->
<svg xmlns="http://www.w3.org/2000/svg" xml:space="preserve" width="2.98326in" height="2.47566in" version="1.1" style="shape-rendering:geometricPrecision; text-rendering:geometricPrecision; image-rendering:optimizeQuality; fill-rule:evenodd; clip-rule:evenodd"
viewBox="0 0 864 717"
 xmlns:xlink="http://www.w3.org/1999/xlink">
 <defs>
  <style type="text/css">
   <![CDATA[
    .str2 {stroke:black;stroke-width:13.528}
    .str1 {stroke:black;stroke-width:13.528}
    .str6 {stroke:#1A1A1A;stroke-width:13.5302}
    .str0 {stroke:black;stroke-width:13.5302}
    .str3 {stroke:#1A1A1A;stroke-width:12.4648}
    .str4 {stroke:#1A1A1A;stroke-width:13.6569;stroke-linecap:round;stroke-linejoin:round}
    .str5 {stroke:#1A1A1A;stroke-width:13.6569;stroke-linecap:round;stroke-linejoin:round}
    .fil4 {fill:none}
    .fil1 {fill:none;fill-rule:nonzero}
    .fil5 {fill:#99FF00}
    .fil0 {fill:white}
    .fil6 {fill:#1A1A1A;fill-rule:nonzero}
    .fil3 {fill:#99FF00;fill-rule:nonzero}
    .fil2 {fill:white;fill-rule:nonzero}
   ]]>
  </style>
 </defs>
 <g id="Layer_x0020_1">
  <metadata id="CorelCorpID_0Corel-Layer"/>
  <path class="fil0" d="M557 225c4,6 19,12 27,6 2,-2 4,-6 4,-9 0,-7 -9,-12 -15,-9 -4,1 -6,3 -9,5 -1,1 -2,3 -3,4 -1,1 -3,2 -4,3z"/>
  <path class="fil0" d="M549 244c2,6 6,10 10,12 6,2 12,2 15,-4 3,-6 -2,-12 -7,-13 -4,-1 -11,3 -18,5z"/>
  <path class="fil0" d="M535 259c4,14 17,18 22,10 3,-5 -1,-10 -5,-12 -4,-1 -12,2 -17,2z"/>
  <g>
   <path class="fil1 str0" d="M142 281c-7,6 -12,14 -17,23 -9,15 -15,32 -20,46 -15,43 -16,94 -1,137 6,18 14,35 26,48 11,13 24,23 40,29 21,7 45,8 75,-2l7 -3c20,-6 46,-22 72,-41 11,-8 22,-16 33,-25 -44,-57 -65,-121 -39,-174 10,-20 25,-38 42,-52 13,-10 28,-18 42,-21 16,-3 31,-3 45,4 9,5 18,11 25,21 16,21 15,52 6,84 -13,42 -40,86 -60,107 -9,10 -21,22 -35,34 11,13 24,25 38,37 27,25 59,46 92,62 32,17 67,28 100,32 70,10 135,-13 170,-90 0,-1 1,-11 2,-20 0,-5 0,-9 0,-10l17 -8c2,4 2,12 2,19 -1,11 -3,24 -4,26 -39,86 -112,112 -190,102 -35,-5 -71,-17 -106,-34 -34,-17 -67,-39 -96,-65 -14,-12 -27,-26 -39,-39 -11,8 -23,17 -34,25 -27,20 -55,37 -77,44l-7 3c-34,11 -63,10 -87,2 -19,-7 -36,-19 -49,-35 -12,-15 -22,-33 -29,-54 -16,-46 -15,-103 1,-149 6,-15 13,-33 22,-49 5,-10 11,-19 19,-26 -83,-98 71,-310 105,-253 7,8 -10,13 -3,20 -17,-59 -176,152 -73,225 115,27 215,-162 162,-139 -5,-9 0,-24 15,-18 66,14 -76,218 -192,177zm229 200c13,-11 25,-22 34,-32 18,-19 43,-60 55,-100 8,-26 9,-51 -3,-67 -5,-7 -11,-12 -18,-15 -10,-5 -21,-5 -32,-3 -12,3 -24,9 -35,18 -15,12 -28,28 -37,45 -22,46 -4,102 36,154z"/>
   <path id="1" class="fil2" d="M142 281c-7,6 -12,14 -17,23 -9,15 -15,32 -20,46 -15,43 -16,94 -1,137 6,18 14,35 26,48 11,13 24,23 40,29 21,7 45,8 75,-2l7 -3c20,-6 46,-22 72,-41 11,-8 22,-16 33,-25 -44,-57 -65,-121 -39,-174 10,-20 25,-38 42,-52 13,-10 28,-18 42,-21 16,-3 31,-3 45,4 9,5 18,11 25,21 16,21 15,52 6,84 -13,42 -40,86 -60,107 -9,10 -21,22 -35,34 11,13 24,25 38,37 27,25 59,46 92,62 32,17 67,28 100,32 70,10 135,-13 170,-90 0,-1 1,-11 2,-20 0,-5 0,-9 0,-10l17 -8c2,4 2,12 2,19 -1,11 -3,24 -4,26 -39,86 -112,112 -190,102 -35,-5 -71,-17 -106,-34 -34,-17 -67,-39 -96,-65 -14,-12 -27,-26 -39,-39 -11,8 -23,17 -34,25 -27,20 -55,37 -77,44l-7 3c-34,11 -63,10 -87,2 -19,-7 -36,-19 -49,-35 -12,-15 -22,-33 -29,-54 -16,-46 -15,-103 1,-149 6,-15 13,-33 22,-49 5,-10 11,-19 19,-26 -83,-98 71,-310 105,-253 7,8 -10,13 -3,20 -17,-59 -176,152 -73,225 115,27 215,-162 162,-139 -5,-9 0,-24 15,-18 66,14 -76,218 -192,177zm229 200c13,-11 25,-22 34,-32 18,-19 43,-60 55,-100 8,-26 9,-51 -3,-67 -5,-7 -11,-12 -18,-15 -10,-5 -21,-5 -32,-3 -12,3 -24,9 -35,18 -15,12 -28,28 -37,45 -22,46 -4,102 36,154z"/>
  </g>
  <g>
   <path class="fil1 str1" d="M676 77l-1 23c-5,-1 -9,-1 -13,-1 -4,-1 -8,-1 -12,-1l-3 0 -3 45c0,3 0,6 0,9 0,3 0,6 0,10 0,3 0,6 0,8 0,2 0,4 0,5l-32 0c1,-8 2,-18 3,-31 1,-13 1,-29 2,-46 -6,0 -12,1 -17,1 -4,0 -9,0 -12,1l1 -23 87 0z"/>
  </g>
  <g>
   <path id="1" class="fil1 str1" d="M679 175c1,-10 2,-24 3,-40 1,-17 2,-36 2,-58l30 0c-1,5 -1,10 -2,15 0,5 0,11 -1,16 3,-3 7,-6 11,-8 4,-2 9,-2 14,-2 10,0 17,1 22,5 4,4 7,10 7,19 0,3 -1,11 -1,22 -1,12 -1,22 -2,31l-28 0c0,-8 1,-15 1,-21 1,-7 1,-12 1,-16 0,-7 -1,-12 -3,-14 -1,-3 -4,-4 -8,-4 -6,0 -10,3 -13,10 -2,7 -3,22 -4,45l-29 0z"/>
  </g>
  <g>
   <path id="2" class="fil1 str1" d="M807 128l19 0 0 -1c0,-4 -1,-7 -2,-9 -2,-2 -4,-3 -6,-3 -3,0 -6,1 -8,3 -2,3 -3,6 -3,10zm35 46c-5,1 -9,2 -14,3 -4,0 -8,0 -12,0 -13,0 -23,-3 -30,-9 -6,-6 -10,-15 -10,-27 0,-14 4,-24 11,-32 8,-8 18,-11 32,-11 11,0 20,2 25,7 6,5 9,13 9,23 0,2 0,4 0,7 -1,2 -1,5 -1,8l-45 0c-1,0 -1,0 -1,0 0,1 0,1 0,2 0,4 2,7 5,9 3,2 8,3 14,3 3,0 7,0 10,0 3,-1 7,-2 10,-2l-3 19z"/>
  </g>
  <path id="3" class="fil3" d="M676 77l-1 23c-5,-1 -9,-1 -13,-1 -4,-1 -8,-1 -12,-1l-3 0 -3 45c0,3 0,6 0,9 0,3 0,6 0,10 0,3 0,6 0,8 0,2 0,4 0,5l-32 0c1,-8 2,-18 3,-31 1,-13 1,-29 2,-46 -6,0 -12,1 -17,1 -4,0 -9,0 -12,1l1 -23 87 0z"/>
  <path id="4" class="fil3" d="M679 175c1,-10 2,-24 3,-40 1,-17 2,-36 2,-58l30 0c-1,5 -1,10 -2,15 0,5 0,11 -1,16 3,-3 7,-6 11,-8 4,-2 9,-2 14,-2 10,0 17,1 22,5 4,4 7,10 7,19 0,3 -1,11 -1,22 -1,12 -1,22 -2,31l-28 0c0,-8 1,-15 1,-21 1,-7 1,-12 1,-16 0,-7 -1,-12 -3,-14 -1,-3 -4,-4 -8,-4 -6,0 -10,3 -13,10 -2,7 -3,22 -4,45l-29 0z"/>
  <path id="5" class="fil3" d="M807 128l19 0 0 -1c0,-4 -1,-7 -2,-9 -2,-2 -4,-3 -6,-3 -3,0 -6,1 -8,3 -2,3 -3,6 -3,10zm35 46c-5,1 -9,2 -14,3 -4,0 -8,0 -12,0 -13,0 -23,-3 -30,-9 -6,-6 -10,-15 -10,-27 0,-14 4,-24 11,-32 8,-8 18,-11 32,-11 11,0 20,2 25,7 6,5 9,13 9,23 0,2 0,4 0,7 -1,2 -1,5 -1,8l-45 0c-1,0 -1,0 -1,0 0,1 0,1 0,2 0,4 2,7 5,9 3,2 8,3 14,3 3,0 7,0 10,0 3,-1 7,-2 10,-2l-3 19z"/>
  <g>
   <path class="fil1 str2" d="M616 194l-2 34c-6,0 -12,-1 -18,-1 -6,0 -13,-1 -19,-1l-5 0 -4 68c0,5 0,9 0,14 0,5 0,9 0,14 0,6 0,10 0,13 0,3 0,5 0,8l-48 0c1,-12 3,-28 4,-48 1,-20 2,-43 3,-69 -9,1 -18,1 -25,1 -7,0 -13,1 -19,2l2 -35 131 0z"/>
  </g>
  <g>
   <path id="1" class="fil1 str2" d="M651 343c-3,1 -6,2 -9,2 -3,0 -6,0 -8,0 -12,0 -21,-2 -28,-8 -6,-6 -10,-13 -10,-23 0,-11 4,-19 10,-25 6,-6 17,-10 31,-14 2,0 4,0 6,-1 17,-3 25,-8 25,-12 0,-3 -1,-5 -3,-6 -2,-1 -5,-2 -10,-2 -6,0 -13,1 -21,3 -7,1 -14,3 -21,6l5 -32c6,-2 13,-3 21,-4 7,-1 15,-2 23,-2 17,0 29,2 37,7 7,5 11,12 11,23 0,1 0,3 0,5 0,2 0,4 0,6l-3 58c0,1 0,3 0,5 0,2 0,7 0,14l-43 0c0,-8 1,-14 1,-19 0,-4 1,-7 1,-9l1 -20c-2,0 -4,1 -5,2 -2,0 -4,1 -7,2l-10 2c-4,1 -7,2 -9,4 -2,2 -3,4 -3,7 0,3 1,5 3,7 2,1 5,2 8,2 1,0 3,0 6,-1 2,0 5,0 8,-1l-7 24z"/>
  </g>
  <g>
   <path id="2" class="fil1 str2" d="M775 228c1,5 2,9 4,12 1,4 2,6 2,8l4 12 6 -13c1,-2 2,-5 4,-8 1,-3 2,-7 3,-11l49 0c-2,4 -5,9 -9,14 -3,5 -7,10 -12,17l-16 25 15 25c3,4 6,9 9,14 4,6 8,12 13,20l-53 0c-2,-4 -3,-8 -5,-12 -1,-3 -2,-6 -3,-8l-6 -14 -5 13c0,1 -2,4 -4,9 -1,4 -3,8 -4,12l-50 0c6,-10 11,-17 15,-23 3,-5 6,-10 9,-15l15 -24 -16 -28c-1,-1 -2,-4 -5,-8 -2,-3 -6,-9 -11,-17l51 0z"/>
  </g>
  <path id="3" class="fil3" d="M616 194l-2 34c-6,0 -12,-1 -18,-1 -6,0 -13,-1 -19,-1l-5 0 -4 68c0,5 0,9 0,14 0,5 0,9 0,14 0,6 0,10 0,13 0,3 0,5 0,8l-48 0c1,-12 3,-28 4,-48 1,-20 2,-43 3,-69 -9,1 -18,1 -25,1 -7,0 -13,1 -19,2l2 -35 131 0z"/>
  <path id="4" class="fil3" d="M651 343c-3,1 -6,2 -9,2 -3,0 -6,0 -8,0 -12,0 -21,-2 -28,-8 -6,-6 -10,-13 -10,-23 0,-11 4,-19 10,-25 6,-6 17,-10 31,-14 2,0 4,0 6,-1 17,-3 25,-8 25,-12 0,-3 -1,-5 -3,-6 -2,-1 -5,-2 -10,-2 -6,0 -13,1 -21,3 -7,1 -14,3 -21,6l5 -32c6,-2 13,-3 21,-4 7,-1 15,-2 23,-2 17,0 29,2 37,7 7,5 11,12 11,23 0,1 0,3 0,5 0,2 0,4 0,6l-3 58c0,1 0,3 0,5 0,2 0,7 0,14l-43 0c0,-8 1,-14 1,-19 0,-4 1,-7 1,-9l1 -20c-2,0 -4,1 -5,2 -2,0 -4,1 -7,2l-10 2c-4,1 -7,2 -9,4 -2,2 -3,4 -3,7 0,3 1,5 3,7 2,1 5,2 8,2 1,0 3,0 6,-1 2,0 5,0 8,-1l-7 24z"/>
  <path id="5" class="fil3" d="M775 228c1,5 2,9 4,12 1,4 2,6 2,8l4 12 6 -13c1,-2 2,-5 4,-8 1,-3 2,-7 3,-11l49 0c-2,4 -5,9 -9,14 -3,5 -7,10 -12,17l-16 25 15 25c3,4 6,9 9,14 4,6 8,12 13,20l-53 0c-2,-4 -3,-8 -5,-12 -1,-3 -2,-6 -3,-8l-6 -14 -5 13c0,1 -2,4 -4,9 -1,4 -3,8 -4,12l-50 0c6,-10 11,-17 15,-23 3,-5 6,-10 9,-15l15 -24 -16 -28c-1,-1 -2,-4 -5,-8 -2,-3 -6,-9 -11,-17l51 0z"/>
  <g>
   <path class="fil1 str3" d="M56 466l5 0c10,0 17,-1 22,-2 5,-1 9,-3 12,-5 5,-4 9,-9 12,-15 3,-7 4,-14 4,-22 0,-13 -2,-22 -6,-28 -5,-5 -12,-8 -22,-8l-24 0 -2 53c0,3 0,6 -1,11 0,5 0,10 0,16zm-49 34c2,-19 4,-41 5,-66 1,-25 2,-53 3,-83l72 0c14,0 24,1 31,3 6,1 11,4 16,7 8,6 14,14 19,24 4,10 6,22 6,35 0,26 -7,46 -22,59 -15,14 -36,21 -64,21l-66 0z"/>
  </g>
  <g>
   <path id="1" class="fil1 str3" d="M238 413c-7,0 -12,3 -15,8 -4,5 -5,13 -5,23 0,10 1,17 4,21 3,5 8,7 15,7 7,0 12,-2 15,-7 4,-5 5,-13 5,-23 0,-10 -1,-18 -4,-22 -3,-5 -8,-7 -15,-7zm-65 32c0,-19 6,-35 18,-46 12,-11 28,-16 49,-16 20,0 35,5 46,15 10,10 16,24 16,42 0,20 -6,35 -18,46 -12,11 -28,17 -48,17 -20,0 -36,-5 -47,-15 -10,-10 -16,-24 -16,-43z"/>
  </g>
  <g>
   <path id="2" class="fil1 str3" d="M404 499c-6,2 -12,3 -17,3 -6,1 -11,1 -16,1 -18,0 -31,-5 -41,-15 -10,-10 -15,-24 -15,-41 0,-20 6,-36 17,-47 12,-12 27,-17 47,-17 5,0 10,0 15,1 5,0 10,2 16,3l2 34c-8,-2 -13,-3 -16,-4 -3,0 -6,0 -8,0 -9,0 -16,2 -21,7 -5,5 -7,12 -7,21 0,8 2,13 7,17 4,4 10,6 18,6 4,0 8,0 12,0 4,-1 8,-2 12,-3l-5 34z"/>
  </g>
  <g>
   <path id="3" class="fil1 str3" d="M475 446c0,0 0,0 0,2 0,1 0,2 0,3 0,7 1,12 3,15 2,3 6,4 11,4 1,0 3,0 6,-1 2,0 3,0 4,0l-3 32c-4,1 -7,1 -11,2 -4,0 -8,0 -13,0 -13,0 -23,-3 -30,-9 -6,-6 -10,-15 -10,-27l0 -4 3 -48 -17 0 2 -29 18 0 1 -19 40 -9 -1 28 25 0 -1 29 -25 0 -2 31z"/>
  </g>
  <g>
   <path id="4" class="fil1 str3" d="M575 413c-7,0 -12,3 -15,8 -4,5 -5,13 -5,23 0,10 1,17 4,21 3,5 8,7 15,7 7,0 12,-2 15,-7 4,-5 5,-13 5,-23 0,-10 -1,-18 -4,-22 -3,-5 -8,-7 -15,-7zm-65 32c0,-19 6,-35 18,-46 12,-11 28,-16 49,-16 20,0 35,5 46,15 10,10 16,24 16,42 0,20 -6,35 -18,46 -12,11 -28,17 -48,17 -20,0 -36,-5 -46,-15 -11,-10 -17,-24 -17,-43z"/>
  </g>
  <g>
   <path id="5" class="fil1 str3" d="M737 418c-1,0 -2,0 -3,0 -1,0 -2,0 -4,0 -7,0 -13,1 -18,4 -4,3 -8,7 -10,13 -1,4 -2,10 -3,18 -1,8 -1,23 -2,47l-44 0c2,-17 3,-34 4,-51 1,-18 1,-35 1,-52l0 -11 39 0 -1 16c4,-7 9,-12 14,-15 5,-3 11,-4 18,-4 2,0 4,0 7,0 0,0 0,0 0,0l2 35z"/>
  </g>
  <path id="6" class="fil3" d="M56 466l5 0c10,0 17,-1 22,-2 5,-1 9,-3 12,-5 5,-4 9,-9 12,-15 3,-7 4,-14 4,-22 0,-13 -2,-22 -6,-28 -5,-5 -12,-8 -22,-8l-24 0 -2 53c0,3 0,6 -1,11 0,5 0,10 0,16zm-49 34c2,-19 4,-41 5,-66 1,-25 2,-53 3,-83l72 0c14,0 24,1 31,3 6,1 11,4 16,7 8,6 14,14 19,24 4,10 6,22 6,35 0,26 -7,46 -22,59 -15,14 -36,21 -64,21l-66 0z"/>
  <path id="7" class="fil3" d="M238 413c-7,0 -12,3 -15,8 -4,5 -5,13 -5,23 0,10 1,17 4,21 3,5 8,7 15,7 7,0 12,-2 15,-7 4,-5 5,-13 5,-23 0,-10 -1,-18 -4,-22 -3,-5 -8,-7 -15,-7zm-65 32c0,-19 6,-35 18,-46 12,-11 28,-16 49,-16 20,0 35,5 46,15 10,10 16,24 16,42 0,20 -6,35 -18,46 -12,11 -28,17 -48,17 -20,0 -36,-5 -47,-15 -10,-10 -16,-24 -16,-43z"/>
  <path id="8" class="fil3" d="M404 499c-6,2 -12,3 -17,3 -6,1 -11,1 -16,1 -18,0 -31,-5 -41,-15 -10,-10 -15,-24 -15,-41 0,-20 6,-36 17,-47 12,-12 27,-17 47,-17 5,0 10,0 15,1 5,0 10,2 16,3l2 34c-8,-2 -13,-3 -16,-4 -3,0 -6,0 -8,0 -9,0 -16,2 -21,7 -5,5 -7,12 -7,21 0,8 2,13 7,17 4,4 10,6 18,6 4,0 8,0 12,0 4,-1 8,-2 12,-3l-5 34z"/>
  <path id="9" class="fil3" d="M475 446c0,0 0,0 0,2 0,1 0,2 0,3 0,7 1,12 3,15 2,3 6,4 11,4 1,0 3,0 6,-1 2,0 3,0 4,0l-3 32c-4,1 -7,1 -11,2 -4,0 -8,0 -13,0 -13,0 -23,-3 -30,-9 -6,-6 -10,-15 -10,-27l0 -4 3 -48 -17 0 2 -29 18 0 1 -19 40 -9 -1 28 25 0 -1 29 -25 0 -2 31z"/>
  <path id="10" class="fil3" d="M575 413c-7,0 -12,3 -15,8 -4,5 -5,13 -5,23 0,10 1,17 4,21 3,5 8,7 15,7 7,0 12,-2 15,-7 4,-5 5,-13 5,-23 0,-10 -1,-18 -4,-22 -3,-5 -8,-7 -15,-7zm-65 32c0,-19 6,-35 18,-46 12,-11 28,-16 49,-16 20,0 35,5 46,15 10,10 16,24 16,42 0,20 -6,35 -18,46 -12,11 -28,17 -48,17 -20,0 -36,-5 -46,-15 -11,-10 -17,-24 -17,-43z"/>
  <path id="11" class="fil3" d="M737 418c-1,0 -2,0 -3,0 -1,0 -2,0 -4,0 -7,0 -13,1 -18,4 -4,3 -8,7 -10,13 -1,4 -2,10 -3,18 -1,8 -1,23 -2,47l-44 0c2,-17 3,-34 4,-51 1,-18 1,-35 1,-52l0 -11 39 0 -1 16c4,-7 9,-12 14,-15 5,-3 11,-4 18,-4 2,0 4,0 7,0 0,0 0,0 0,0l2 35z"/>
  <g>
   <path class="fil1 str4" d="M87 621l-27 0c10,-10 17,-19 21,-27 5,-8 7,-14 7,-20 0,-3 0,-5 -2,-7 -2,-2 -4,-3 -7,-3 -3,0 -6,1 -8,2 -1,2 -2,4 -2,7 0,3 1,6 2,7 2,2 5,2 8,2 1,0 2,0 2,0 1,0 1,0 1,0l-7 14c0,0 -1,0 -1,0 -1,0 -1,1 -2,1 -8,0 -14,-2 -19,-6 -4,-3 -6,-9 -6,-16 0,-8 3,-15 8,-20 6,-5 14,-7 24,-7 10,0 17,2 22,6 6,5 8,11 8,19 0,7 -1,14 -5,22 -3,7 -9,16 -17,26z"/>
  </g>
  <g>
   <path id="1" class="fil1 str4" d="M162 549c-1,4 -1,9 -1,13 -1,5 -1,10 -1,15l-1 19c0,2 0,7 -1,15 0,4 0,8 0,10l-23 0c1,-5 1,-9 1,-12 0,-4 0,-6 0,-7l2 -34 -14 9 2 -20 13 -8 23 0z"/>
  </g>
  <g>
   <path id="2" class="fil1 str4" d="M240 621l-58 0 1 -18c11,-7 20,-14 27,-20 6,-7 10,-12 10,-15 0,-2 -1,-3 -3,-4 -2,-1 -4,-1 -7,-1 -3,0 -6,0 -10,1 -4,1 -8,2 -13,3l3 -17c5,-1 10,-1 14,-2 5,0 9,0 13,0 9,0 15,1 20,4 4,4 7,8 7,14 0,5 -3,11 -8,17 -5,6 -13,14 -24,22l29 0 -1 16z"/>
  </g>
  <g>
   <polygon id="3" class="fil1 str4" points="280,601 254,601 255,585 281,585 "/>
  </g>
  <g>
   <path id="4" class="fil1 str4" d="M289 619l0 -18c5,2 10,3 13,4 4,1 8,1 11,1 3,0 6,0 8,-2 2,-1 3,-3 3,-6 0,-2 -1,-4 -3,-5 -2,-2 -6,-2 -10,-2 -1,0 -5,0 -10,0 -1,0 -2,1 -3,1l1 -17c2,0 4,0 5,0 2,0 3,0 4,0 5,0 8,0 11,-1 2,-2 3,-3 3,-6 0,-2 -1,-3 -2,-4 -2,-1 -4,-1 -8,-1 -4,0 -8,0 -11,1 -3,0 -6,1 -9,2l3 -17c5,0 9,-1 13,-1 4,-1 7,-1 10,-1 11,0 18,2 23,4 5,3 8,7 8,13 0,5 -2,9 -6,12 -3,4 -8,6 -15,7 7,1 12,2 16,5 3,3 5,6 5,12 0,7 -3,13 -10,17 -6,4 -15,6 -27,6 -4,0 -8,-1 -12,-1 -3,-1 -7,-2 -11,-3z"/>
  </g>
  <g>
   <path id="5" class="fil1 str4" d="M379 549l27 0c-10,11 -17,20 -22,27 -4,8 -7,15 -7,20 0,3 1,6 3,8 2,1 4,2 7,2 3,0 6,0 7,-2 2,-2 3,-4 3,-7 0,-3 -1,-5 -3,-7 -1,-1 -4,-2 -8,-2 0,0 -1,0 -1,0 -1,0 -1,0 -2,0l8 -14c0,0 0,0 1,0 1,0 1,0 1,0 9,0 15,2 19,5 5,4 7,9 7,16 0,9 -3,16 -9,21 -5,4 -13,7 -23,7 -10,0 -17,-2 -23,-7 -5,-5 -8,-11 -8,-19 0,-7 2,-14 6,-21 3,-8 9,-17 17,-27z"/>
  </g>
  <g>
   <path id="6" class="fil1 str4" d="M447 549l27 0c-10,11 -17,20 -21,27 -5,8 -7,15 -7,20 0,3 0,6 2,8 2,1 4,2 7,2 4,0 6,0 8,-2 1,-2 2,-4 2,-7 0,-3 -1,-5 -2,-7 -2,-1 -5,-2 -9,-2 0,0 -1,0 -1,0 -1,0 -1,0 -1,0l7 -14c0,0 1,0 1,0 1,0 1,0 2,0 8,0 14,2 18,5 5,4 7,9 7,16 0,9 -3,16 -8,21 -6,4 -14,7 -24,7 -10,0 -17,-2 -22,-7 -6,-5 -8,-11 -8,-19 0,-7 1,-14 5,-21 3,-8 9,-17 17,-27z"/>
  </g>
  <g>
   <polygon id="7" class="fil1 str4" points="522,601 496,601 497,585 523,585 "/>
  </g>
  <g>
   <path id="8" class="fil1 str4" d="M562 587l1 -23c-2,4 -4,7 -6,11 -3,4 -5,8 -9,12l14 0zm20 -38l-2 38 13 0 -1 16 -13 0 -1 18 -20 0 1 -18 -29 0 1 -20c3,-4 6,-8 9,-13 4,-5 9,-12 15,-21l27 0z"/>
  </g>
  <g>
   <path id="9" class="fil1 str4" d="M660 549l-1 17c-3,-1 -6,-1 -9,-1 -3,0 -6,0 -8,0l-3 0 -2 33c0,2 0,4 0,6 0,3 0,5 0,7 0,3 0,5 0,6 0,2 0,3 0,4l-23 0c0,-6 1,-13 1,-23 1,-10 2,-21 2,-33 -5,0 -9,0 -12,0 -4,0 -7,0 -9,1l1 -17 63 0z"/>
  </g>
  <g>
   <path id="10" class="fil1 str4" d="M679 558c1,-1 1,-2 2,-3 0,-2 1,-4 2,-6l29 0c0,1 0,3 0,4 1,1 1,2 1,4l22 64 -24 0c0,-1 0,-2 -1,-3 0,-1 0,-2 0,-3l-4 -16 -26 0 -6 14c-1,1 -1,3 -2,4 0,2 -1,3 -1,4l-24 0 32 -63zm17 1l-10 23 16 0 -6 -23z"/>
  </g>
  <g>
   <path id="11" class="fil1 str4" d="M780 621c-1,-1 -1,-2 -2,-4 0,-1 -1,-2 -1,-3l-9 -16 -10 15c-1,2 -2,3 -3,5 0,1 -1,2 -2,3l-24 0 28 -38 -22 -34 26 0c0,1 1,2 1,3 1,1 1,2 1,2l8 15 7 -12c0,-1 1,-2 1,-3 1,-1 2,-2 3,-5l24 0 -24 34 24 38 -26 0z"/>
  </g>
  <path id="12" class="fil3" d="M87 621l-27 0c10,-10 17,-19 21,-27 5,-8 7,-14 7,-20 0,-3 0,-5 -2,-7 -2,-2 -4,-3 -7,-3 -3,0 -6,1 -8,2 -1,2 -2,4 -2,7 0,3 1,6 2,7 2,2 5,2 8,2 1,0 2,0 2,0 1,0 1,0 1,0l-7 14c0,0 -1,0 -1,0 -1,0 -1,1 -2,1 -8,0 -14,-2 -19,-6 -4,-3 -6,-9 -6,-16 0,-8 3,-15 8,-20 6,-5 14,-7 24,-7 10,0 17,2 22,6 6,5 8,11 8,19 0,7 -1,14 -5,22 -3,7 -9,16 -17,26z"/>
  <path id="13" class="fil3" d="M162 549c-1,4 -1,9 -1,13 -1,5 -1,10 -1,15l-1 19c0,2 0,7 -1,15 0,4 0,8 0,10l-23 0c1,-5 1,-9 1,-12 0,-4 0,-6 0,-7l2 -34 -14 9 2 -20 13 -8 23 0z"/>
  <path id="14" class="fil3" d="M240 621l-58 0 1 -18c11,-7 20,-14 27,-20 6,-7 10,-12 10,-15 0,-2 -1,-3 -3,-4 -2,-1 -4,-1 -7,-1 -3,0 -6,0 -10,1 -4,1 -8,2 -13,3l3 -17c5,-1 10,-1 14,-2 5,0 9,0 13,0 9,0 15,1 20,4 4,4 7,8 7,14 0,5 -3,11 -8,17 -5,6 -13,14 -24,22l29 0 -1 16z"/>
  <polygon id="15" class="fil3" points="280,601 254,601 255,585 281,585 "/>
  <path id="16" class="fil3" d="M289 619l0 -18c5,2 10,3 13,4 4,1 8,1 11,1 3,0 6,0 8,-2 2,-1 3,-3 3,-6 0,-2 -1,-4 -3,-5 -2,-2 -6,-2 -10,-2 -1,0 -5,0 -10,0 -1,0 -2,1 -3,1l1 -17c2,0 4,0 5,0 2,0 3,0 4,0 5,0 8,0 11,-1 2,-2 3,-3 3,-6 0,-2 -1,-3 -2,-4 -2,-1 -4,-1 -8,-1 -4,0 -8,0 -11,1 -3,0 -6,1 -9,2l3 -17c5,0 9,-1 13,-1 4,-1 7,-1 10,-1 11,0 18,2 23,4 5,3 8,7 8,13 0,5 -2,9 -6,12 -3,4 -8,6 -15,7 7,1 12,2 16,5 3,3 5,6 5,12 0,7 -3,13 -10,17 -6,4 -15,6 -27,6 -4,0 -8,-1 -12,-1 -3,-1 -7,-2 -11,-3z"/>
  <path id="17" class="fil3" d="M379 549l27 0c-10,11 -17,20 -22,27 -4,8 -7,15 -7,20 0,3 1,6 3,8 2,1 4,2 7,2 3,0 6,0 7,-2 2,-2 3,-4 3,-7 0,-3 -1,-5 -3,-7 -1,-1 -4,-2 -8,-2 0,0 -1,0 -1,0 -1,0 -1,0 -2,0l8 -14c0,0 0,0 1,0 1,0 1,0 1,0 9,0 15,2 19,5 5,4 7,9 7,16 0,9 -3,16 -9,21 -5,4 -13,7 -23,7 -10,0 -17,-2 -23,-7 -5,-5 -8,-11 -8,-19 0,-7 2,-14 6,-21 3,-8 9,-17 17,-27z"/>
  <path id="18" class="fil3" d="M447 549l27 0c-10,11 -17,20 -21,27 -5,8 -7,15 -7,20 0,3 0,6 2,8 2,1 4,2 7,2 4,0 6,0 8,-2 1,-2 2,-4 2,-7 0,-3 -1,-5 -2,-7 -2,-1 -5,-2 -9,-2 0,0 -1,0 -1,0 -1,0 -1,0 -1,0l7 -14c0,0 1,0 1,0 1,0 1,0 2,0 8,0 14,2 18,5 5,4 7,9 7,16 0,9 -3,16 -8,21 -6,4 -14,7 -24,7 -10,0 -17,-2 -22,-7 -6,-5 -8,-11 -8,-19 0,-7 1,-14 5,-21 3,-8 9,-17 17,-27z"/>
  <polygon id="19" class="fil3" points="522,601 496,601 497,585 523,585 "/>
  <path id="20" class="fil3" d="M562 587l1 -23c-2,4 -4,7 -6,11 -3,4 -5,8 -9,12l14 0zm20 -38l-2 38 13 0 -1 16 -13 0 -1 18 -20 0 1 -18 -29 0 1 -20c3,-4 6,-8 9,-13 4,-5 9,-12 15,-21l27 0z"/>
  <path id="21" class="fil3" d="M660 549l-1 17c-3,-1 -6,-1 -9,-1 -3,0 -6,0 -8,0l-3 0 -2 33c0,2 0,4 0,6 0,3 0,5 0,7 0,3 0,5 0,6 0,2 0,3 0,4l-23 0c0,-6 1,-13 1,-23 1,-10 2,-21 2,-33 -5,0 -9,0 -12,0 -4,0 -7,0 -9,1l1 -17 63 0z"/>
  <path id="22" class="fil3" d="M679 558c1,-1 1,-2 2,-3 0,-2 1,-4 2,-6l29 0c0,1 0,3 0,4 1,1 1,2 1,4l22 64 -24 0c0,-1 0,-2 -1,-3 0,-1 0,-2 0,-3l-4 -16 -26 0 -6 14c-1,1 -1,3 -2,4 0,2 -1,3 -1,4l-24 0 32 -63zm17 1l-10 23 16 0 -6 -23z"/>
  <path id="23" class="fil3" d="M780 621c-1,-1 -1,-2 -2,-4 0,-1 -1,-2 -1,-3l-9 -16 -10 15c-1,2 -2,3 -3,5 0,1 -1,2 -2,3l-24 0 28 -38 -22 -34 26 0c0,1 1,2 1,3 1,1 1,2 1,2l8 15 7 -12c0,-1 1,-2 1,-3 1,-1 2,-2 3,-5l24 0 -24 34 24 38 -26 0z"/>
  <g>
   <path class="fil1 str5" d="M519 710c-4,-5 -8,-11 -11,-17 -2,-7 -4,-14 -4,-22 0,-6 1,-12 3,-18 3,-7 6,-14 12,-21l5 0c-3,6 -6,10 -7,12 -1,4 -3,8 -4,12 -1,5 -1,10 -1,15 0,13 4,26 12,39l-5 0z"/>
  </g>
  <g>
   <path id="1" class="fil1 str5" d="M572 693l0 -14 -26 0 0 -7 27 -39 6 0 0 39 8 0 0 7 -8 0 0 14 -7 0zm0 -21l0 -27 -19 27 19 0z"/>
  </g>
  <g>
   <path id="2" class="fil1 str5" d="M624 660c-3,-1 -6,-2 -7,-4 -2,-2 -2,-5 -2,-8 0,-4 1,-8 4,-11 3,-3 8,-4 13,-4 5,0 9,1 12,4 4,3 5,7 5,11 0,3 -1,6 -2,8 -1,2 -4,3 -7,4 4,2 7,4 9,6 2,3 3,6 3,10 0,5 -2,9 -6,13 -3,3 -8,5 -14,5 -6,0 -11,-2 -14,-5 -4,-4 -6,-8 -6,-13 0,-4 1,-8 3,-10 2,-3 5,-5 9,-6zm-2 -12c0,3 1,5 3,7 2,2 4,3 7,3 3,0 5,-1 7,-3 2,-2 3,-4 3,-7 0,-2 -1,-5 -3,-6 -2,-2 -4,-3 -7,-3 -3,0 -5,1 -7,3 -2,1 -3,3 -3,6zm-2 28c0,2 0,4 1,6 1,2 3,3 5,4 2,1 4,2 6,2 4,0 6,-1 9,-3 2,-3 3,-6 3,-9 0,-4 -1,-7 -3,-9 -3,-2 -6,-3 -9,-3 -4,0 -7,1 -9,3 -2,2 -3,5 -3,9z"/>
  </g>
  <g>
   <path id="3" class="fil1 str5" d="M715 686l0 7 -40 0c0,-2 1,-4 1,-5 1,-3 3,-6 5,-8 2,-3 6,-6 10,-9 6,-6 11,-10 13,-13 2,-3 3,-6 3,-9 0,-3 -1,-5 -3,-7 -2,-2 -5,-3 -8,-3 -3,0 -6,1 -8,3 -3,2 -4,5 -4,9l-7 -1c0,-5 2,-10 6,-13 3,-3 8,-4 13,-4 6,0 11,1 14,5 3,3 5,7 5,11 0,3 -1,5 -2,8 0,2 -2,4 -4,7 -3,2 -6,6 -12,10 -4,4 -7,7 -8,8 -1,1 -3,3 -3,4l29 0z"/>
  </g>
  <g>
   <path id="4" class="fil1 str5" d="M742 679l7 -1c0,4 2,6 3,8 2,1 4,2 7,2 2,0 4,-1 6,-2 1,-1 3,-2 4,-4 1,-2 2,-4 3,-7 0,-3 1,-6 1,-9 0,0 0,-1 0,-1 -2,2 -4,4 -6,5 -3,2 -6,3 -9,3 -5,0 -9,-2 -12,-6 -4,-3 -5,-8 -5,-14 0,-6 2,-11 5,-15 4,-3 8,-5 14,-5 3,0 7,1 10,3 3,2 6,5 8,9 1,4 2,9 2,17 0,7 -1,14 -2,18 -2,5 -5,8 -8,10 -3,3 -7,4 -11,4 -5,0 -9,-1 -12,-4 -3,-3 -5,-6 -5,-11zm30 -26c0,-5 -1,-8 -4,-10 -2,-3 -4,-4 -8,-4 -3,0 -6,1 -8,4 -3,3 -4,6 -4,10 0,4 1,7 4,10 2,2 5,3 8,3 4,0 6,-1 9,-3 2,-3 3,-6 3,-10z"/>
  </g>
  <g>
   <path id="5" class="fil1 str5" d="M812 710l-5 0c8,-13 12,-26 12,-39 0,-5 -1,-10 -2,-15 -1,-4 -2,-8 -4,-12 -1,-2 -3,-6 -6,-12l5 0c5,7 9,14 11,21 2,6 3,12 3,18 0,8 -1,15 -4,22 -3,6 -6,12 -10,17z"/>
  </g>
  <path id="6" class="fil3" d="M519 710c-4,-5 -8,-11 -11,-17 -2,-7 -4,-14 -4,-22 0,-6 1,-12 3,-18 3,-7 6,-14 12,-21l5 0c-3,6 -6,10 -7,12 -1,4 -3,8 -4,12 -1,5 -1,10 -1,15 0,13 4,26 12,39l-5 0z"/>
  <path id="7" class="fil3" d="M572 693l0 -14 -26 0 0 -7 27 -39 6 0 0 39 8 0 0 7 -8 0 0 14 -7 0zm0 -21l0 -27 -19 27 19 0z"/>
  <path id="8" class="fil3" d="M624 660c-3,-1 -6,-2 -7,-4 -2,-2 -2,-5 -2,-8 0,-4 1,-8 4,-11 3,-3 8,-4 13,-4 5,0 9,1 12,4 4,3 5,7 5,11 0,3 -1,6 -2,8 -1,2 -4,3 -7,4 4,2 7,4 9,6 2,3 3,6 3,10 0,5 -2,9 -6,13 -3,3 -8,5 -14,5 -6,0 -11,-2 -14,-5 -4,-4 -6,-8 -6,-13 0,-4 1,-8 3,-10 2,-3 5,-5 9,-6zm-2 -12c0,3 1,5 3,7 2,2 4,3 7,3 3,0 5,-1 7,-3 2,-2 3,-4 3,-7 0,-2 -1,-5 -3,-6 -2,-2 -4,-3 -7,-3 -3,0 -5,1 -7,3 -2,1 -3,3 -3,6zm-2 28c0,2 0,4 1,6 1,2 3,3 5,4 2,1 4,2 6,2 4,0 6,-1 9,-3 2,-3 3,-6 3,-9 0,-4 -1,-7 -3,-9 -3,-2 -6,-3 -9,-3 -4,0 -7,1 -9,3 -2,2 -3,5 -3,9z"/>
  <path id="9" class="fil3" d="M715 686l0 7 -40 0c0,-2 1,-4 1,-5 1,-3 3,-6 5,-8 2,-3 6,-6 10,-9 6,-6 11,-10 13,-13 2,-3 3,-6 3,-9 0,-3 -1,-5 -3,-7 -2,-2 -5,-3 -8,-3 -3,0 -6,1 -8,3 -3,2 -4,5 -4,9l-7 -1c0,-5 2,-10 6,-13 3,-3 8,-4 13,-4 6,0 11,1 14,5 3,3 5,7 5,11 0,3 -1,5 -2,8 0,2 -2,4 -4,7 -3,2 -6,6 -12,10 -4,4 -7,7 -8,8 -1,1 -3,3 -3,4l29 0z"/>
  <path id="10" class="fil3" d="M742 679l7 -1c0,4 2,6 3,8 2,1 4,2 7,2 2,0 4,-1 6,-2 1,-1 3,-2 4,-4 1,-2 2,-4 3,-7 0,-3 1,-6 1,-9 0,0 0,-1 0,-1 -2,2 -4,4 -6,5 -3,2 -6,3 -9,3 -5,0 -9,-2 -12,-6 -4,-3 -5,-8 -5,-14 0,-6 2,-11 5,-15 4,-3 8,-5 14,-5 3,0 7,1 10,3 3,2 6,5 8,9 1,4 2,9 2,17 0,7 -1,14 -2,18 -2,5 -5,8 -8,10 -3,3 -7,4 -11,4 -5,0 -9,-1 -12,-4 -3,-3 -5,-6 -5,-11zm30 -26c0,-5 -1,-8 -4,-10 -2,-3 -4,-4 -8,-4 -3,0 -6,1 -8,4 -3,3 -4,6 -4,10 0,4 1,7 4,10 2,2 5,3 8,3 4,0 6,-1 9,-3 2,-3 3,-6 3,-10z"/>
  <path id="11" class="fil3" d="M812 710l-5 0c8,-13 12,-26 12,-39 0,-5 -1,-10 -2,-15 -1,-4 -2,-8 -4,-12 -1,-2 -3,-6 -6,-12l5 0c5,7 9,14 11,21 2,6 3,12 3,18 0,8 -1,15 -4,22 -3,6 -6,12 -10,17z"/>
  <g>
   <path class="fil4 str6" d="M737 466l30 -3c1,8 4,14 9,18 3,2 7,4 11,4l3 -34c-15,-3 -26,-7 -32,-12 -9,-6 -13,-15 -13,-25 1,-6 3,-12 8,-18 4,-5 10,-10 19,-13 6,-2 14,-4 23,-5l1 -12 18 0 -1 13c13,0 22,3 29,9 9,6 14,15 14,27l-30 2c-1,-7 -4,-11 -8,-14 -2,-1 -4,-2 -7,-3l-2 28c13,2 22,5 28,8 7,2 12,7 16,12 3,5 5,12 5,20 -1,7 -3,14 -8,20 -5,6 -12,11 -21,14 -7,3 -16,5 -26,5l-1 18 -18 0 1 -18c-13,0 -23,-4 -31,-9 -10,-7 -15,-18 -17,-32zm68 20c6,-1 11,-3 15,-5 5,-4 7,-8 8,-13 0,-3 -1,-5 -3,-7 -2,-2 -6,-4 -11,-5 -1,-1 -3,-1 -7,-2l-2 32zm-11 -86c-6,0 -11,2 -15,4 -3,2 -5,5 -5,8 0,3 1,6 4,8 2,1 7,3 14,5l2 -25z"/>
   <path id="1" class="fil5" d="M737 466l30 -3c1,8 4,14 9,18 3,2 7,4 11,4l3 -34c-15,-3 -26,-7 -32,-12 -9,-6 -13,-15 -13,-25 1,-6 3,-12 8,-18 4,-5 10,-10 19,-13 6,-2 14,-4 23,-5l1 -12 18 0 -1 13c13,0 22,3 29,9 9,6 14,15 14,27l-30 2c-1,-7 -4,-11 -8,-14 -2,-1 -4,-2 -7,-3l-2 28c13,2 22,5 28,8 7,2 12,7 16,12 3,5 5,12 5,20 -1,7 -3,14 -8,20 -5,6 -12,11 -21,14 -7,3 -16,5 -26,5l-1 18 -18 0 1 -18c-13,0 -23,-4 -31,-9 -10,-7 -15,-18 -17,-32zm68 20c6,-1 11,-3 15,-5 5,-4 7,-8 8,-13 0,-3 -1,-5 -3,-7 -2,-2 -6,-4 -11,-5 -1,-1 -3,-1 -7,-2l-2 32zm-11 -86c-6,0 -11,2 -15,4 -3,2 -5,5 -5,8 0,3 1,6 4,8 2,1 7,3 14,5l2 -25z"/>
  </g>
  <g>
   <path class="fil6" d="M251 27l-12 -11 4 -5 13 12 0 0 -5 4zm5 21l-4 -5 0 0 0 0 1 -1 0 0 0 -1 1 0 0 -1 0 0 0 -1 0 0 1 -1 0 0 0 -1 0 0 0 -1 0 0 0 -1 0 0 0 -1 0 0 0 -1 -1 -1 0 0 0 -1 0 0 0 -1 -1 0 0 -1 0 0 0 0 -1 -1 0 0 -1 -1 5 -4 0 0 1 1 0 1 1 0 0 1 1 1 0 1 1 0 0 1 0 1 0 1 1 1 0 0 0 1 0 1 0 1 0 1 0 1 0 0 0 1 0 1 0 1 -1 1 0 1 0 0 -1 1 0 1 0 1 -1 0 0 1 -1 1 -1 0 0 1zm-4 -5l0 0 4 5 0 0 -4 -5 0 0zm-20 5l4 -4 0 0 0 0 1 1 0 0 1 0 0 0 1 1 0 0 1 0 0 0 1 0 0 1 1 0 0 0 1 0 0 0 1 0 1 0 0 0 1 0 0 0 1 -1 0 0 1 0 0 0 1 0 0 -1 1 0 0 0 1 -1 0 0 0 0 1 -1 4 4 0 1 -1 1 -1 0 0 1 -1 0 -1 1 0 0 -1 1 -1 0 -1 0 -1 0 0 1 -1 0 -1 0 -1 0 -1 0 -1 0 0 0 -1 0 -1 0 -1 0 -1 -1 -1 0 0 0 -1 0 -1 -1 -1 0 -1 -1 0 0 -1 0 -1 -1 0 -1 0 0zm-9 -16l13 12 -4 4 -13 -11 4 -5zm-5 -20l5 4 0 0 -1 1 0 0 0 0 -1 1 0 0 0 1 0 0 -1 1 0 0 0 1 0 0 0 1 0 1 0 0 0 1 0 0 0 1 0 0 0 1 0 0 0 1 0 0 1 1 0 0 0 1 0 0 1 1 0 0 0 1 1 0 0 1 0 0 -4 5 -1 -1 0 -1 -1 0 0 -1 -1 -1 0 0 -1 -1 0 -1 0 -1 -1 -1 0 0 0 -1 0 -1 0 -1 0 -1 0 -1 0 0 0 -1 0 -1 0 -1 0 -1 0 -1 0 0 1 -1 0 -1 0 -1 1 -1 0 0 1 -1 0 -1 1 0 0 -1 0 0zm5 4l0 0 -5 -4 0 0 5 4 0 0zm20 -5l-4 5 0 0 -1 -1 0 0 -1 -1 0 0 -1 0 0 0 -1 -1 0 0 -1 0 0 0 -1 0 0 0 -1 0 0 0 -1 0 0 0 -1 0 0 0 -1 0 0 0 -1 0 -1 0 0 0 -1 1 0 0 -1 0 0 0 0 1 -1 0 0 0 -1 1 0 0 -5 -4 1 -1 1 0 0 -1 1 0 1 -1 0 0 1 -1 1 0 1 -1 1 0 0 0 1 0 1 0 1 -1 1 0 0 0 1 0 1 0 1 0 1 1 1 0 0 0 1 0 1 0 1 1 1 0 0 0 1 1 1 0 1 1 0 0 1 1 0 0z"/>
   <path id="1" class="fil5" d="M241 13l12 12c6,5 7,15 1,20l0 0c-5,6 -14,6 -20,1l-13 -12c-6,-5 -6,-14 0,-20l0 0c5,-6 14,-6 20,-1z"/>
  </g>
  <g>
   <path class="fil6" d="M336 105l-16 -6 2 -6 16 6 0 0 -2 6zm12 16l-5 -2 0 0 0 -1 0 0 0 -1 0 0 0 -1 0 0 0 -1 0 0 0 -1 0 0 0 -1 0 -1 0 0 0 -1 -1 0 0 -1 0 0 0 -1 -1 0 0 0 0 -1 -1 0 0 -1 0 0 -1 0 0 -1 -1 0 0 0 -1 -1 0 0 -1 0 0 0 2 -6 1 0 1 0 0 1 1 0 1 1 1 0 0 1 1 0 0 1 1 1 1 0 0 1 1 1 0 0 0 1 1 1 0 0 0 1 1 1 0 1 0 1 0 1 0 0 1 1 0 1 0 1 -1 1 0 1 0 1 0 0 0 1 0 1 -1 0zm-5 -2l0 0 5 2 0 0 -5 -2 0 0zm-17 13l2 -6 0 0 1 0 0 0 1 0 0 0 1 0 1 1 0 0 1 0 0 -1 1 0 0 0 1 0 0 0 1 0 0 0 1 -1 0 0 1 0 0 0 1 -1 0 0 1 0 0 -1 0 0 1 -1 0 0 0 0 1 -1 0 0 0 -1 0 0 1 -1 6 2 -1 1 0 1 -1 1 0 0 0 1 -1 1 -1 0 0 1 -1 1 0 0 -1 1 -1 0 0 1 -1 0 -1 1 -1 0 0 0 -1 1 -1 0 -1 0 -1 0 0 1 -1 0 -1 0 -1 0 -1 0 -1 0 0 0 -1 -1 -1 0 -1 0 -1 0 0 0zm-14 -12l16 6 -2 6 -16 -6 0 0 2 -6zm-13 -17l6 3 0 0 0 0 0 1 0 0 0 1 0 0 0 1 0 1 0 0 0 1 0 0 0 1 0 0 0 1 0 0 0 1 1 0 0 1 0 0 0 1 1 0 0 1 0 0 1 0 0 1 1 0 0 0 0 1 1 0 0 0 1 1 0 0 1 0 -2 6 -1 0 -1 -1 -1 0 0 -1 -1 0 -1 -1 0 0 -1 -1 -1 0 0 -1 -1 0 0 -1 -1 -1 0 -1 -1 0 0 -1 0 -1 -1 -1 0 0 0 -1 0 -1 0 -1 -1 -1 0 -1 0 0 0 -1 0 -1 0 -1 1 -1 0 -1 0 -1 0 0 0 -1zm6 3l0 0 -6 -3 0 0 6 3 0 0zm17 -13l-2 6 0 0 -1 0 0 -1 -1 0 -1 0 0 0 -1 0 0 0 -1 0 0 0 -1 0 0 0 -1 0 0 1 -1 0 0 0 -1 0 0 0 -1 1 0 0 -1 0 0 1 -1 0 0 0 0 1 -1 0 0 1 -1 0 0 1 0 0 0 1 -1 0 0 1 -6 -2 1 -1 0 -1 0 -1 1 -1 0 0 1 -1 0 -1 1 0 1 -1 0 -1 1 0 0 -1 1 0 1 -1 1 0 0 0 1 -1 1 0 1 0 0 -1 1 0 1 0 1 0 1 0 1 0 1 0 0 0 1 0 1 0 1 0 1 1 1 0 0 0z"/>
   <path id="1" class="fil5" d="M321 96l16 6c7,2 11,11 9,18l0 0c-3,8 -11,11 -19,9l-16 -6c-7,-3 -11,-11 -9,-18l0 0c3,-8 11,-12 19,-9z"/>
  </g>
 </g>
</svg>
